<svg id="close" xmlns="http://www.w3.org/2000/svg" width="20.046" height="20.046" viewBox="0 0 20.046 20.046">
  <path id="Path_6" data-name="Path 6" d="M14.634,7.952a.835.835,0,0,0-1.181,0l-2.16,2.16-2.16-2.16A.835.835,0,1,0,7.952,9.133l2.16,2.16-2.16,2.16a.835.835,0,1,0,1.181,1.181l2.16-2.16,2.16,2.16a.835.835,0,1,0,1.181-1.181l-2.16-2.16,2.16-2.16A.835.835,0,0,0,14.634,7.952Z" transform="translate(-1.27 -1.27)"/>
  <path id="Path_7" data-name="Path 7" d="M10.023,0A10.023,10.023,0,1,0,20.046,10.023,10.023,10.023,0,0,0,10.023,0Zm0,18.375a8.352,8.352,0,1,1,8.352-8.352A8.352,8.352,0,0,1,10.023,18.375Z"/>
</svg>
