<svg xmlns="http://www.w3.org/2000/svg" width="10.818" height="10.818" viewBox="0 0 10.818 10.818">
  <g id="delete" transform="translate(-2 -2)">
    <path id="Path_34" data-name="Path 34" d="M12.277,5H2.541a.541.541,0,1,0,0,1.082H3.623v6.491A1.623,1.623,0,0,0,5.246,14.2H9.573A1.623,1.623,0,0,0,11.2,12.573V6.082h1.082a.541.541,0,1,0,0-1.082ZM6.868,10.95a.541.541,0,1,1-1.082,0v-2.7a.541.541,0,1,1,1.082,0Zm2.164,0a.541.541,0,1,1-1.082,0v-2.7a.541.541,0,1,1,1.082,0Z" transform="translate(0 -1.377)"/>
    <path id="Path_35" data-name="Path 35" d="M9.541,3.082H11.7A.541.541,0,1,0,11.7,2H9.541a.541.541,0,1,0,0,1.082Z" transform="translate(-3.214)"/>
  </g>
</svg>
