<svg xmlns="http://www.w3.org/2000/svg" width="9.23" height="9.221" viewBox="0 0 9.23 9.221">
  <g id="edit" transform="translate(0 -0.247)">
    <path id="Path_32" data-name="Path 32" d="M5.7,82.473.621,87.552a.2.2,0,0,0-.053.093L.005,89.9a.2.2,0,0,0,.194.248.2.2,0,0,0,.048-.006l2.259-.563a.2.2,0,0,0,.093-.053l5.079-5.079Zm0,0" transform="translate(0 -80.685)"/>
    <path id="Path_33" data-name="Path 33" d="M337,1.1,336.434.53a1.024,1.024,0,0,0-1.414,0l-.693.693L336.307,3.2,337,2.509A1,1,0,0,0,337,1.1Zm0,0" transform="translate(-328.063 0)"/>
  </g>
</svg>
