<svg id="export" xmlns="http://www.w3.org/2000/svg" width="14.912" height="14.912" viewBox="0 0 14.912 14.912">
  <path id="Path_234" data-name="Path 234" d="M15.574,19.147h6.882a.574.574,0,0,0,0-1.147H15.574a.574.574,0,1,0,0,1.147Z" transform="translate(-8.691 -9.397)" fill-rule="evenodd"/>
  <path id="Path_235" data-name="Path 235" d="M24.168,14.979l1.889,1.889-1.889,1.889a.573.573,0,0,0,.811.811l2.294-2.294a.573.573,0,0,0,0-.811l-2.294-2.294a.573.573,0,0,0-.811.811Z" transform="translate(-12.53 -7.691)" fill-rule="evenodd"/>
  <path id="Path_236" data-name="Path 236" d="M14,4.574V6.868a1.72,1.72,0,0,0,1.721,1.721h2.294a.574.574,0,1,0,0-1.147H15.721a.574.574,0,0,1-.574-.574V4.574a.574.574,0,1,0-1.147,0Z" transform="translate(-8.265 -3.426)" fill-rule="evenodd"/>
  <path id="Path_237" data-name="Path 237" d="M14.9,9.882V7.588a.572.572,0,0,0-.168-.405L10.714,3.168A.572.572,0,0,0,10.309,3H5.721A1.721,1.721,0,0,0,4,4.721V16.191a1.721,1.721,0,0,0,1.721,1.721h7.456A1.721,1.721,0,0,0,14.9,16.191V14.471a.574.574,0,1,0-1.147,0v1.721a.574.574,0,0,1-.574.574H5.721a.574.574,0,0,1-.574-.574V4.721a.574.574,0,0,1,.574-.574h4.351L13.75,7.826V9.882a.574.574,0,1,0,1.147,0Z" transform="translate(-4 -3)" fill-rule="evenodd"/>
</svg>
