<svg id="import" xmlns="http://www.w3.org/2000/svg" width="13.191" height="14.912" viewBox="0 0 13.191 14.912">
  <path id="Path_230" data-name="Path 230" d="M7,14.471v1.721a1.721,1.721,0,0,0,1.721,1.721h7.456A1.721,1.721,0,0,0,17.9,16.191v-8.6a.572.572,0,0,0-.168-.405L13.714,3.168A.572.572,0,0,0,13.309,3H8.721A1.721,1.721,0,0,0,7,4.721V9.882a.574.574,0,0,0,1.147,0V4.721a.574.574,0,0,1,.574-.574h4.351L16.75,7.826v8.366a.574.574,0,0,1-.574.574H8.721a.574.574,0,0,1-.574-.574V14.471a.574.574,0,0,0-1.147,0Z" transform="translate(-4.706 -3)" fill-rule="evenodd"/>
  <path id="Path_231" data-name="Path 231" d="M17,4.574V6.868a1.72,1.72,0,0,0,1.721,1.721h2.294a.574.574,0,1,0,0-1.147H18.721a.574.574,0,0,1-.574-.574V4.574a.574.574,0,1,0-1.147,0Z" transform="translate(-8.971 -3.426)" fill-rule="evenodd"/>
  <path id="Path_232" data-name="Path 232" d="M3.574,19.147h6.882a.574.574,0,1,0,0-1.147H3.574a.574.574,0,0,0,0,1.147Z" transform="translate(-3 -9.397)" fill-rule="evenodd"/>
  <path id="Path_233" data-name="Path 233" d="M12.168,14.979l1.889,1.889-1.889,1.889a.573.573,0,0,0,.811.811l2.294-2.294a.573.573,0,0,0,0-.811l-2.294-2.294a.573.573,0,1,0-.811.811Z" transform="translate(-6.838 -7.691)" fill-rule="evenodd"/>
</svg>
