<svg id="question" xmlns="http://www.w3.org/2000/svg" width="16.017" height="16.017" viewBox="0 0 16.017 16.017">
  <g id="Group_341" data-name="Group 341">
    <g id="Group_340" data-name="Group 340">
      <path id="Path_222" data-name="Path 222" d="M8.008,0a8.008,8.008,0,1,0,8.008,8.008A8,8,0,0,0,8.008,0Zm0,14.9A6.891,6.891,0,1,1,14.9,8.008,6.9,6.9,0,0,1,8.008,14.9Z"/>
    </g>
  </g>
  <g id="Group_343" data-name="Group 343" transform="translate(6.97 10.133)">
    <g id="Group_342" data-name="Group 342">
      <path id="Path_223" data-name="Path 223" d="M223.616,323.924a.812.812,0,0,0,0,1.623.812.812,0,0,0,0-1.623Z" transform="translate(-222.815 -323.924)"/>
    </g>
  </g>
  <g id="Group_345" data-name="Group 345" transform="translate(5.832 3.988)">
    <g id="Group_344" data-name="Group 344">
      <path id="Path_224" data-name="Path 224" d="M188.5,127.469c-1.423,0-2.077.843-2.077,1.413a.6.6,0,0,0,.632.6c.569,0,.337-.812,1.413-.812.527,0,.949.232.949.717,0,.569-.59.9-.938,1.191a1.929,1.929,0,0,0-.706,1.6c0,.548.148.706.58.706.517,0,.622-.232.622-.432a1.324,1.324,0,0,1,.59-1.318,2.7,2.7,0,0,0,1.181-1.929C190.743,128.217,189.847,127.469,188.5,127.469Z" transform="translate(-186.421 -127.469)"/>
    </g>
  </g>
</svg>
