<svg id="save" xmlns="http://www.w3.org/2000/svg" width="13.56" height="13.56" viewBox="0 0 13.56 13.56">
  <g id="Group_104" data-name="Group 104">
    <path id="Path_37" data-name="Path 37" d="M11.131,0H1.589A1.591,1.591,0,0,0,0,1.589V11.971A1.591,1.591,0,0,0,1.589,13.56H11.971a1.591,1.591,0,0,0,1.589-1.589V2.429ZM4.158,1.059H7.31V3.072H8.369V1.059H9.429V3.6a.53.53,0,0,1-.53.53H4.688a.53.53,0,0,1-.53-.53ZM10.488,12.5H3.1V7.84a.53.53,0,0,1,.53-.53h6.33a.53.53,0,0,1,.53.53Zm2.013-.53a.53.53,0,0,1-.53.53h-.424V7.84A1.591,1.591,0,0,0,9.958,6.251H3.628A1.591,1.591,0,0,0,2.039,7.84V12.5h-.45a.53.53,0,0,1-.53-.53V1.589a.53.53,0,0,1,.53-.53H3.1V3.6A1.591,1.591,0,0,0,4.688,5.191H8.9A1.591,1.591,0,0,0,10.488,3.6V1.059h.2L12.5,2.868Z"/>
  </g>
</svg>
