<svg xmlns="http://www.w3.org/2000/svg" width="16.154" height="15" viewBox="0 0 16.154 15">
  <g id="stats" transform="translate(-2 -3)">
    <path id="Path_225" data-name="Path 225" d="M11.231,7.038H8.923A1.154,1.154,0,0,0,7.769,8.192v8.654A1.154,1.154,0,0,0,8.923,18h2.308a1.154,1.154,0,0,0,1.154-1.154V8.192A1.154,1.154,0,0,0,11.231,7.038ZM8.923,16.846V8.192h2.308v8.654ZM17,3H14.692a1.154,1.154,0,0,0-1.154,1.154V16.846A1.154,1.154,0,0,0,14.692,18H17a1.154,1.154,0,0,0,1.154-1.154V4.154A1.154,1.154,0,0,0,17,3ZM14.692,16.846V4.154H17V16.846ZM5.462,11.077H3.154A1.154,1.154,0,0,0,2,12.231v4.615A1.154,1.154,0,0,0,3.154,18H5.462a1.154,1.154,0,0,0,1.154-1.154V12.231A1.154,1.154,0,0,0,5.462,11.077ZM3.154,16.846V12.231H5.462v4.615Z" transform="translate(0 0)"/>
  </g>
</svg>
