<svg xmlns="http://www.w3.org/2000/svg" width="16.024" height="16.067" viewBox="0 0 16.024 16.067">
  <g id="tag" transform="translate(-0.525 -0.489)">
    <path id="Path_226" data-name="Path 226" d="M31.709,11.467a1.6,1.6,0,0,0,1.2-.513,1.692,1.692,0,1,0-2.392-2.392,1.652,1.652,0,0,0,0,2.392A1.6,1.6,0,0,0,31.709,11.467ZM31.23,9.28a.661.661,0,0,1,.957,0,.661.661,0,0,1,0,.957.692.692,0,0,1-.957,0,.661.661,0,0,1,0-.957Z" transform="translate(-19.401 -4.993)"/>
    <path id="Path_227" data-name="Path 227" d="M5.882,15.907a2.146,2.146,0,0,0,3.076,0L15.9,8.969a2.315,2.315,0,0,0,.649-1.743L16.17,2.885A2.16,2.16,0,0,0,14.187.9L9.847.493A2.193,2.193,0,0,0,8.1,1.142L1.166,8.08a2.207,2.207,0,0,0,0,3.11Zm-4-7.109L8.822,1.86a1.193,1.193,0,0,1,.82-.342h.1l4.341.376a1.139,1.139,0,0,1,1.06,1.06l.376,4.341a1.16,1.16,0,0,1-.342.923l-6.9,6.972a1.176,1.176,0,0,1-1.641,0L1.884,10.439a1.176,1.176,0,0,1,0-1.641Z"/>
    <path id="Path_228" data-name="Path 228" d="M0,0H1.025V5.127H0Z" transform="translate(6.388 7.081) rotate(-45)"/>
    <path id="Path_229" data-name="Path 229" d="M0,0H1.025V5.127H0Z" transform="translate(4.146 9.294) rotate(-45)"/>
  </g>
</svg>
