<svg xmlns="http://www.w3.org/2000/svg" width="14.906" height="14.906" viewBox="0 0 14.906 14.906">
  <path id="users" d="M4.658,8.074A2.795,2.795,0,1,1,7.453,5.279,2.795,2.795,0,0,1,4.658,8.074Zm0-4.347A1.553,1.553,0,1,0,6.211,5.279,1.553,1.553,0,0,0,4.658,3.726ZM9.316,14.285v-.311a4.658,4.658,0,0,0-9.316,0v.311a.621.621,0,1,0,1.242,0v-.311a3.416,3.416,0,1,1,6.832,0v.311a.621.621,0,1,0,1.242,0Zm5.59-3.105A4.347,4.347,0,0,0,7.66,7.939a.621.621,0,1,0,.829.925,3.105,3.105,0,0,1,5.175,2.315.621.621,0,0,0,1.242,0ZM10.869,5.59a2.795,2.795,0,1,1,2.795-2.795A2.795,2.795,0,0,1,10.869,5.59Zm0-4.347a1.553,1.553,0,1,0,1.553,1.553A1.553,1.553,0,0,0,10.869,1.242Z"/>
</svg>
